<svg width="161" height="40" viewBox="0 0 161 40" fill="none" xmlns="http://www.w3.org/2000/svg">
<path d="M100.955 17.7706C100.955 13.4463 100.961 9.12213 100.945 4.79591C100.945 4.37169 101.063 4.27964 101.47 4.28164C104.993 4.29765 108.516 4.24363 112.037 4.30966C114.14 4.34768 116.256 4.49175 118.164 5.5683C120.072 6.64686 121.24 8.24168 121.729 10.3968C122.13 12.1697 122.024 13.8986 121.49 15.5934C120.683 18.1448 118.903 19.7536 116.376 20.566C115.162 20.9562 113.917 21.0883 112.646 21.0803C110.37 21.0663 108.093 21.0763 105.817 21.0763C105.384 21.0763 105.167 21.2857 105.167 21.7046C105.167 24.7481 105.161 27.7917 105.175 30.8353C105.175 31.2195 105.087 31.3495 104.684 31.3395C103.604 31.3115 102.524 31.3115 101.444 31.3395C101.053 31.3495 100.945 31.2395 100.945 30.8433C100.959 26.485 100.953 22.1268 100.953 17.7686L100.955 17.7706ZM105.167 12.776C105.167 14.1247 105.183 15.4714 105.157 16.8201C105.149 17.2083 105.273 17.2863 105.634 17.2823C107.129 17.2623 108.626 17.2863 110.121 17.2703C111.474 17.2563 112.831 17.3664 114.176 17.0782C115.649 16.762 117.2 15.6915 117.456 14.0266C117.57 13.2923 117.615 12.5659 117.514 11.8375C117.372 10.829 116.973 9.95255 116.11 9.32823C115.12 8.60987 113.985 8.33172 112.807 8.30771C110.398 8.25568 107.987 8.2857 105.578 8.26369C105.247 8.26169 105.155 8.35974 105.159 8.6839C105.175 10.0486 105.165 11.4133 105.165 12.778L105.167 12.776Z" fill="#514C9F"/>
<path d="M145.275 33.7247C146.621 34.3511 148.004 34.7613 149.435 34.9914C150.928 35.2315 152.435 35.3236 153.906 34.8973C155.209 34.5211 156.049 33.4666 156.139 32.0759C156.169 31.6177 156.205 31.1574 156.221 30.6972C156.229 30.4971 156.149 30.427 155.958 30.4591C154.229 30.7512 152.481 30.8253 150.744 30.7252C149.064 30.6271 147.393 30.291 146.008 29.2284C144.806 28.308 144.054 27.0693 143.748 25.5706C143.597 24.8242 143.561 24.0778 143.565 23.3174C143.583 19.9237 143.573 16.5279 143.573 13.1342C143.573 12.714 143.79 12.5039 144.225 12.5039C145.273 12.5039 146.321 12.5239 147.367 12.4939C147.78 12.4818 147.852 12.6259 147.852 13.0001C147.838 16.5779 147.818 20.1558 147.856 23.7336C147.876 25.6766 148.86 26.7352 150.708 27.0473C152.249 27.3074 153.808 27.1974 155.353 26.9813C155.624 26.9433 155.966 27.0953 156.157 26.8532C156.361 26.5951 156.235 26.2429 156.235 25.9327C156.241 21.7226 156.245 17.5124 156.231 13.3023C156.231 12.8941 156.325 12.764 156.746 12.774C157.876 12.804 159.005 12.794 160.137 12.778C160.444 12.774 160.528 12.862 160.528 13.1702C160.516 19.4594 160.544 25.7506 160.492 32.0399C160.476 33.8928 159.953 35.6397 158.538 36.9664C157.399 38.0349 155.995 38.5832 154.477 38.8414C153.095 39.0755 151.696 39.0114 150.313 38.9234C148.966 38.8374 147.652 38.4932 146.379 38.0229C146.056 37.9029 146.042 37.6407 145.988 37.4066C145.73 36.28 145.497 35.1495 145.261 34.0189C145.245 33.9429 145.273 33.8588 145.283 33.7307L145.275 33.7247Z" fill="#514C9F"/>
<path d="M140.975 24.598C140.975 26.5771 140.971 28.5581 140.979 30.5371C140.979 30.8332 140.955 30.9973 140.586 31.0674C139.496 31.2735 138.395 31.3775 137.305 31.5596C135.205 31.9098 133.095 31.8618 130.988 31.8358C129.397 31.8157 127.832 31.4456 126.401 30.7992C125.15 30.2349 124.243 29.2024 123.742 27.8517C123.421 26.9853 123.447 26.1208 123.503 25.2304C123.561 24.3139 123.81 23.4775 124.309 22.6991C125.066 21.5205 126.195 20.8641 127.477 20.4899C129.359 19.9437 131.291 19.7556 133.253 19.9557C134.338 20.0696 135.342 20.086 136.417 20.2458C136.582 20.2698 136.682 20.2498 136.668 20.0617C136.582 18.8791 136.706 17.6305 135.68 16.73C134.996 16.1297 134.199 15.8315 133.283 15.7535C132.555 15.6915 131.832 15.6595 131.105 15.6755C129.179 15.7175 127.341 16.1937 125.543 16.8521C125.125 17.0034 124.949 17.2002 125.126 16.4919C125.381 15.4694 125.623 14.4448 125.842 13.4143C125.888 13.1942 126.034 13.0621 126.289 12.9661C127.449 12.5279 128.672 12.4098 129.87 12.1617C130.733 11.9821 131.341 11.9457 132.421 11.9456C133.501 11.9455 135.922 12.1196 137.534 12.84C138.981 13.4883 139.967 14.6009 140.488 16.1537C140.908 17.4024 140.977 18.667 140.979 19.9537C140.981 21.5005 140.979 23.0473 140.979 24.596L140.975 24.598ZM136.692 25.6686C136.692 25.0363 136.682 24.4039 136.696 23.7736C136.702 23.5015 136.654 23.3794 136.331 23.3394C135.564 23.2454 134.796 23.1993 134.028 23.1313C132.431 22.9912 130.856 23.0132 129.335 23.5795C128.603 23.8517 127.818 24.6221 127.892 25.7366C127.948 26.5851 128.433 27.3154 129.341 27.6876C130.082 27.9898 130.854 28.1299 131.652 28.1819C133.245 28.2879 134.822 28.1859 136.397 27.9638C136.64 27.9298 136.696 27.8337 136.694 27.6156C136.686 26.9673 136.692 26.3189 136.692 25.6706V25.6686Z" fill="#514C9F"/>
<path d="M89.5068 28.7822C91.2711 28.5908 92.8939 28.0959 94.333 27.0553C94.6743 26.8092 94.8739 26.8192 95.0695 27.2234C95.3749 27.8557 95.7202 28.47 96.0575 29.0884C96.1713 29.2985 96.2072 29.4526 95.9597 29.6086C94.4747 30.5451 92.8959 31.2295 91.1615 31.5496C89.9559 31.7717 88.7324 31.8278 87.5249 31.7317C85.6427 31.5836 83.8922 31.0194 82.3574 29.8327C80.9103 28.7142 79.9323 27.2614 79.3734 25.5806C78.8505 24.0098 78.6908 22.3569 78.9044 20.672C79.0341 19.6455 79.2337 18.657 79.6229 17.7065C80.7047 15.0672 82.559 13.3123 85.3593 12.5659C86.5788 12.2417 87.8003 12.2397 89.0238 12.2978C90.922 12.3898 92.6644 12.9861 94.0875 14.2968C95.3889 15.4954 96.2451 16.9421 96.7202 18.685C97.0914 20.0437 97.1693 21.3904 97.1892 22.7691C97.1952 23.1313 96.9996 23.0773 96.786 23.0773C94.343 23.0773 91.9 23.0773 89.4569 23.0773C87.2295 23.0773 85.004 23.0833 82.7765 23.0713C82.4013 23.0713 82.2815 23.0893 82.3733 23.5595C82.6428 24.9402 83.2476 26.1368 84.2316 27.1073C85.3012 28.1636 87.2716 29.0248 89.5068 28.7822ZM88.0438 20.1798C89.8202 20.1798 91.5946 20.1818 93.371 20.1758C93.5107 20.1758 93.7542 20.2959 93.6923 19.9437C93.4887 18.7731 93.0456 17.7205 92.2193 16.8541C91.3611 15.9556 90.3531 15.3993 89.0797 15.2553C87.4271 15.0672 85.9181 15.2072 84.5389 16.2818C83.3713 17.1923 82.8324 18.4189 82.4212 19.7576C82.3174 20.0978 82.3933 20.1938 82.7665 20.1898C84.525 20.1678 86.2854 20.1798 88.0438 20.1798Z" fill="#282B35"/>
<path d="M54.489 31.7837C53.3134 31.7517 52.1338 31.6877 51.0081 31.3375C49.7346 30.9413 48.571 30.359 47.6469 29.3165C47.0261 28.6181 46.8166 27.7917 46.6369 26.9553C46.4613 26.1308 46.4912 25.2744 46.7148 24.442C47.1619 22.7731 48.2077 21.6325 49.7805 20.9562C50.9222 20.4659 52.1158 20.2538 53.3513 20.1458C54.0778 20.0817 54.8043 20.0317 55.5209 20.0837C56.3213 20.1398 57.1236 20.1818 57.924 20.2378C58.5427 20.2819 59.1455 20.3879 59.7583 20.4579C60.0457 20.492 60.1854 20.4139 60.1854 20.0617C60.1854 19.3013 60.1455 18.545 59.9379 17.8146C59.5607 16.4899 58.5807 15.7935 57.3112 15.4834C56.0698 15.1792 54.8103 15.2753 53.5429 15.3513C52.1078 15.4374 50.9033 15.6573 49.4213 16.2638C49.0007 16.4359 49.0602 16.42 48.5007 16.6C48.2812 16.572 48.1918 16.598 48.2217 16.4359C48.3894 15.5574 48.5491 14.677 48.7407 13.8045C48.7965 13.5544 49.042 13.4664 49.2856 13.3823C50.8424 12.846 52.4332 12.5179 54.0778 12.3578C55.8163 12.1877 57.5088 12.3018 59.1814 12.78C60.6045 13.1862 61.7622 13.9866 62.5027 15.2793C62.9079 15.9876 63.1913 16.772 63.2711 17.6005C63.6863 21.9387 63.3609 26.2909 63.4687 30.6332C63.4767 30.9193 63.4148 31.1134 63.0935 31.1494C62.2013 31.2495 61.3071 31.3355 60.4189 31.4596C59.2453 31.6237 58.0737 31.7797 56.8861 31.7517C56.8202 31.7517 56.7544 31.7697 56.6905 31.7797C55.958 31.7797 55.2235 31.7817 54.491 31.7837H54.489ZM58.0946 28.7C58.7085 28.6449 59.3947 28.4422 59.866 28.366C60.0916 28.33 60.1794 28.2739 60.1774 28.0378C60.1694 26.5931 60.1694 25.1463 60.1774 23.7016C60.1774 23.4635 60.0896 23.3854 59.8641 23.3654C58.7064 23.2634 56.3911 23.0413 56.3911 23.0413L54.9939 23.0453C54.9939 23.0453 52.6108 23.1753 51.4891 23.6476C50.6568 23.9998 50.1358 24.6081 50.0241 25.5145C49.8903 26.5831 50.2696 27.4115 51.2276 27.9518C51.7206 28.2299 52.2515 28.414 52.7964 28.5021C53.483 28.6121 54.7698 28.7182 54.7698 28.7182C54.7698 28.7182 55.2235 28.7522 55.3991 28.7182C55.6586 28.7182 56.1795 28.7182 56.1795 28.7182C56.1795 28.7182 57.5391 28.7499 58.0946 28.7Z" fill="#282B35"/>
<path d="M24.9506 18.5469C24.9726 20.1857 25.3957 21.7546 26.1562 23.1833C27.232 25.2024 28.8168 26.7131 30.9245 27.6696C32.655 28.456 34.4613 28.7502 36.3395 28.6501C37.8185 28.5701 39.2336 28.1859 40.6028 27.6276C41.3054 27.3415 41.972 26.9873 42.6007 26.5631C42.7684 26.451 42.8901 26.441 42.9939 26.6731C43.3273 27.4215 43.6726 28.1679 44.0458 28.8983C44.1636 29.1284 44.0578 29.1584 43.9061 29.2605C42.8303 29.9868 41.6686 30.5411 40.4411 30.9393C39.0939 31.3755 37.7167 31.6477 36.2856 31.6697C35.7666 31.6777 35.2377 31.7757 34.7128 31.7437C32.9104 31.6297 31.166 31.2715 29.4914 30.5531C27.8268 29.8407 26.3637 28.8522 25.1243 27.5456C23.5874 25.9247 22.5854 23.9897 21.9946 21.8406C21.4637 19.9117 21.4437 17.9286 21.6094 15.9676C21.817 13.5044 22.6912 11.2432 24.1702 9.23218C25.2121 7.81545 26.5055 6.69488 28.0104 5.80442C28.9684 5.23613 29.9784 4.7899 31.0522 4.48975C31.9883 4.22761 32.9424 4.08554 33.9084 3.97748C34.617 3.89744 35.3255 3.86142 36.0301 3.90145C37.8943 4.0055 39.7146 4.33567 41.4431 5.08805C42.3173 5.46825 43.1616 5.89047 43.942 6.44075C44.0977 6.5508 44.1276 6.57282 44.0338 6.75891C43.6726 7.47728 43.3332 8.20765 43.0119 8.94403C42.9021 9.19616 42.7784 9.20817 42.5828 9.0741C41.3533 8.21366 39.9701 7.67538 38.527 7.35121C37.078 7.02505 35.607 6.88297 34.1 7.06907C32.5152 7.26317 31.0642 7.75942 29.7109 8.57784C28.2479 9.4643 27.1102 10.6749 26.2719 12.1617C25.7151 13.1482 25.3378 14.2107 25.1103 15.3153C24.9925 15.8896 25.0005 16.4899 24.9506 17.0762C24.884 17.5632 25.0131 18.0489 24.9506 18.5469Z" fill="#282B35"/>
<path d="M0.00390625 23.0672C0.00989408 19.9416 0.0218697 16.816 0.01189 13.6904C0.01189 13.2922 0.127655 13.0161 0.411079 12.7359C3.05371 10.1126 5.68037 7.47524 8.31102 4.84189C9.60639 3.54523 10.9077 2.25257 12.1891 0.941893C12.4546 0.671755 12.726 0.40962 12.9935 0.143484C13.2051 -0.0686248 13.3428 -0.0346074 13.5144 0.173499C14.0873 0.867855 14.5583 1.60023 14.8517 2.47668C15.1332 3.31511 15.3308 4.15154 15.3048 5.02399C15.2469 6.93697 14.5543 8.59382 13.1951 9.95451C10.5884 12.5639 7.9797 15.1732 5.37499 17.7865C5.24126 17.9206 5.04167 18.0187 5.03967 18.2528C4.81413 18.2688 4.70435 18.4509 4.56663 18.5889C3.17346 19.9897 1.78429 21.3944 0.389123 22.7911C0.279346 22.9012 0.207492 23.0812 0.00590219 23.0692L0.00390625 23.0672Z" fill="#514C9F"/>
<path d="M0.00303128 23.0672C0.204622 23.0792 0.276475 22.8991 0.386252 22.7891C1.78142 21.3903 3.17059 19.9876 4.56376 18.5869C4.70148 18.4488 4.81126 18.2667 5.0368 18.2507C6.75331 19.9516 8.47381 21.6485 10.1863 23.3533C11.2781 24.4379 12.3799 25.5125 13.4417 26.627C14.4397 27.6756 14.9487 28.9622 15.2101 30.383C15.4876 31.8857 15.1063 33.2644 14.5555 34.6191C14.4337 34.9193 14.1922 35.1774 13.9746 35.4295C13.8549 35.5676 13.7371 35.6837 13.6513 35.8618C13.3918 36.392 13.1563 36.414 12.7132 35.9678C11.322 34.5591 9.95081 33.1324 8.55565 31.7276C5.8252 28.9822 3.08277 26.2488 0.354317 23.4994C0.228573 23.3734 -0.0308998 23.3313 0.00303128 23.0672Z" fill="#282B35"/>
<path d="M66.6875 13.6523C67.5118 13.2761 68.412 13.2161 69.2862 13.092C71.6295 12.7578 73.9927 12.7738 76.3519 12.7758C76.7051 12.7758 76.8488 12.8339 76.8309 13.2301C76.795 13.9765 76.8069 14.7268 76.8269 15.4752C76.8349 15.7774 76.757 15.8814 76.4397 15.8714C75.6932 15.8474 74.9447 15.8654 74.1982 15.8634C72.9647 15.8594 71.7452 16.0135 70.5257 16.1796C70.1205 16.2356 69.9628 16.3977 69.9648 16.8439C69.9828 21.5003 69.9708 26.1567 69.9848 30.8131C69.9848 31.2273 69.9209 31.3914 69.4579 31.3634C68.6974 31.3174 67.931 31.3534 67.1665 31.3474C67.0049 31.3474 66.8312 31.3974 66.6875 31.2773C66.7015 31.1473 66.7254 31.0172 66.7254 30.8871C66.7254 25.2723 66.7254 19.6574 66.7254 14.0425C66.7254 13.9124 66.7015 13.7824 66.6875 13.6523Z" fill="#282B35"/>
<path d="M66.6868 13.6523C66.6988 13.7824 66.7247 13.9125 66.7247 14.0425C66.7247 19.6574 66.7247 25.2723 66.7247 30.8872C66.7247 31.0172 66.7008 31.1473 66.6868 31.2774C66.6808 30.0648 66.6689 28.8541 66.6689 27.6435C66.6669 23.1452 66.6689 18.6449 66.6689 14.1466C66.6689 13.9825 66.6808 13.8164 66.6868 13.6523Z" fill="#282B35"/>
</svg>
