<svg width="323" height="228" viewBox="0 0 323 228" fill="none" xmlns="http://www.w3.org/2000/svg">
<path d="M5.98324 114.882C-23.6787 211.989 61.834 247.142 154.715 215.954C251.331 183.512 298.801 242.74 316.532 181.013C342.466 90.7248 278.08 35.4304 214.092 10.8425C150.104 -13.7454 35.6451 17.7757 5.98324 114.882Z" fill="#EA6B0C"/>
<path d="M5.98324 114.882C-23.6787 211.989 61.834 247.142 154.715 215.954C251.331 183.512 298.801 242.74 316.532 181.013C342.466 90.7248 278.08 35.4304 214.092 10.8425C150.104 -13.7454 35.6451 17.7757 5.98324 114.882Z" fill="white" fill-opacity="0.2"/>
<path d="M5.98324 114.882C-23.6787 211.989 61.834 247.142 154.715 215.954C251.331 183.512 298.801 242.74 316.532 181.013C342.466 90.7248 278.08 35.4304 214.092 10.8425C150.104 -13.7454 35.6451 17.7757 5.98324 114.882Z" fill="white" fill-opacity="0.2"/>
<path d="M5.98324 114.882C-23.6787 211.989 61.834 247.142 154.715 215.954C251.331 183.512 298.801 242.74 316.532 181.013C342.466 90.7248 278.08 35.4304 214.092 10.8425C150.104 -13.7454 35.6451 17.7757 5.98324 114.882Z" fill="white" fill-opacity="0.2"/>
<path d="M5.98324 114.882C-23.6787 211.989 61.834 247.142 154.715 215.954C251.331 183.512 298.801 242.74 316.532 181.013C342.466 90.7248 278.08 35.4304 214.092 10.8425C150.104 -13.7454 35.6451 17.7757 5.98324 114.882Z" fill="white" fill-opacity="0.2"/>
<path d="M5.98324 114.882C-23.6787 211.989 61.834 247.142 154.715 215.954C251.331 183.512 298.801 242.74 316.532 181.013C342.466 90.7248 278.08 35.4304 214.092 10.8425C150.104 -13.7454 35.6451 17.7757 5.98324 114.882Z" fill="white" fill-opacity="0.2"/>
<path d="M5.98324 114.882C-23.6787 211.989 61.834 247.142 154.715 215.954C251.331 183.512 298.801 242.74 316.532 181.013C342.466 90.7248 278.08 35.4304 214.092 10.8425C150.104 -13.7454 35.6451 17.7757 5.98324 114.882Z" fill="white" fill-opacity="0.2"/>
<path d="M5.98324 114.882C-23.6787 211.989 61.834 247.142 154.715 215.954C251.331 183.512 298.801 242.74 316.532 181.013C342.466 90.7248 278.08 35.4304 214.092 10.8425C150.104 -13.7454 35.6451 17.7757 5.98324 114.882Z" fill="#F8CFB0"/>
<mask id="mask0_314_4002" style="mask-type:luminance" maskUnits="userSpaceOnUse" x="175" y="0" width="103" height="91">
<path d="M277.766 0H175.559V90.169H277.766V0Z" fill="white"/>
</mask>
<g mask="url(#mask0_314_4002)">
<path d="M208.41 39.247C209.407 39.9733 210.718 40.0779 211.752 39.5178C212.349 39.1917 212.884 38.5208 212.749 37.77C212.589 36.8776 211.654 36.5083 210.958 36.0406C209.05 34.7543 208.509 31.437 209.912 29.6153C210.497 28.8583 211.321 28.3721 211.894 27.5967C212.743 26.4458 212.909 24.8456 213.112 23.3378C213.531 20.1744 214.343 16.8325 216.571 14.9369C218.559 13.2383 221.341 13.0475 223.833 13.7614L239.872 17.8664C240.666 19.9159 240.955 22.1869 240.709 24.3532C240.598 25.3257 240.376 26.2981 240.481 27.2828C240.586 28.3352 241.072 29.3507 241.798 30.0461C242.444 30.6616 243.244 31.0185 243.921 31.5847C244.549 32.1079 245.072 32.8403 245.263 33.6896C245.454 34.5389 245.263 35.499 244.685 36.0344C244.149 36.5329 243.38 36.6252 242.857 37.1299C242.235 37.733 242.13 38.9209 242.635 39.7025C243.14 40.4902 244.174 40.7672 244.888 40.3056C244.888 41.2042 244.377 42.0042 243.724 42.4904C243.072 42.9766 242.29 43.1921 241.515 43.3644C240.303 43.6413 239.029 43.826 237.816 43.4259C236.739 43.0751 235.804 42.2812 234.739 41.875C232.917 41.1795 230.948 41.6965 229.255 42.5828C227.563 43.469 226.043 44.7061 224.344 45.5677C222.645 46.4293 220.651 46.8847 218.848 46.1154C217.02 45.3338 215.519 43.3521 213.586 43.3213C212.817 43.309 212.066 43.6229 211.297 43.5182C209.61 43.2905 208.546 41.1488 208.416 39.2347L208.41 39.247Z" fill="#4C313A"/>
<path d="M177.957 74.4013C178.277 74.2413 178.708 73.8597 179.256 73.0042L178.573 75.5583C178.474 75.9276 178.708 76.3276 179.09 76.3707C179.465 76.4076 179.933 76.2168 180.321 75.2875L181.515 72.3026L182.278 71.5702L180.321 75.7306C180.259 75.8599 180.284 76.0137 180.388 76.1122C180.604 76.3215 181.028 76.5738 181.545 76.0691C181.545 76.0691 181.951 75.5706 182.419 74.9429C182.296 75.4475 183.201 75.6568 184.659 74.9244L188.426 73.2627C190.334 73.9889 192.469 74.2782 194.267 72.8011C194.267 72.8011 208.822 76.8384 212.835 77.577C215.167 77.6077 215.783 75.7491 215.364 73.4535C215.032 71.6502 214.816 69.6993 212.982 69.7546C207.234 69.9393 199.904 69.8839 193.793 68.4561C193.374 68.3576 192.943 68.296 192.513 68.2776C190.826 68.1976 186.303 67.9637 184.801 67.7114C184.579 67.6744 184.346 67.6991 184.136 67.7791L180.142 69.25C179.816 69.3669 179.539 69.5885 179.348 69.8777C178.763 70.764 177.514 72.7703 177.305 73.9089C177.237 74.2782 177.613 74.5736 177.951 74.4074L177.957 74.4013ZM183.742 72.758L185.65 72.0195C185.712 71.9949 185.773 71.9764 185.841 71.9579L187.257 71.601L183.09 74.2228C182.955 74.3089 182.844 74.389 182.752 74.4751C183.195 73.8474 183.625 73.1704 183.742 72.758Z" fill="#FBC6B0"/>
<g style="mix-blend-mode:multiply" opacity="0.44">
<path d="M177.957 74.4013C178.277 74.2413 178.708 73.8597 179.256 73.0042L178.573 75.5583C178.474 75.9276 178.708 76.3276 179.09 76.3707C179.465 76.4076 179.933 76.2168 180.321 75.2875L181.515 72.3026L182.278 71.5702L180.321 75.7306C180.259 75.8599 180.284 76.0137 180.388 76.1122C180.604 76.3215 181.028 76.5738 181.545 76.0691C181.545 76.0691 181.951 75.5706 182.419 74.9429C182.296 75.4475 183.201 75.6568 184.659 74.9244L188.426 73.2627C190.334 73.9889 192.469 74.2782 194.267 72.8011C194.267 72.8011 208.822 76.8384 212.835 77.577C215.167 77.6077 215.783 75.7491 215.364 73.4535C215.032 71.6502 214.816 69.6993 212.982 69.7546C207.234 69.9393 199.904 69.8839 193.793 68.4561C193.374 68.3576 192.943 68.296 192.513 68.2776C190.826 68.1976 186.303 67.9637 184.801 67.7114C184.579 67.6744 184.346 67.6991 184.136 67.7791L180.142 69.25C179.816 69.3669 179.539 69.5885 179.348 69.8777C178.763 70.764 177.514 72.7703 177.305 73.9089C177.237 74.2782 177.613 74.5736 177.951 74.4074L177.957 74.4013ZM183.742 72.758L185.65 72.0195C185.712 71.9949 185.773 71.9764 185.841 71.9579L187.257 71.601L183.09 74.2228C182.955 74.3089 182.844 74.389 182.752 74.4751C183.195 73.8474 183.625 73.1704 183.742 72.758Z" fill="#FBC6B0"/>
</g>
<g style="mix-blend-mode:multiply" opacity="0.53">
<path d="M179.034 73.1397C179.311 72.5304 179.613 71.9272 179.939 71.3426C180.228 70.8256 180.53 70.3455 181.065 70.0624C181.662 69.7485 182.339 69.5455 182.967 69.2993C183.669 69.0285 184.37 68.7515 185.078 68.4807C185.213 68.4315 185.318 68.6284 185.183 68.6838C183.933 69.17 182.666 69.6193 181.435 70.1424C180.831 70.3948 180.499 70.8133 180.179 71.3733C179.841 71.9703 179.533 72.5858 179.25 73.2074C179.188 73.3366 178.973 73.2689 179.034 73.1397Z" fill="#FBC6B0"/>
</g>
<g style="mix-blend-mode:multiply" opacity="0.53">
<path d="M182.079 71.6627C182.196 71.3734 182.412 71.1703 182.676 71.0103C183.027 70.7949 183.415 70.6226 183.778 70.4379C184.492 70.0748 185.2 69.6994 185.957 69.4409C186.092 69.3917 186.141 69.6133 186.006 69.6625C185.323 69.8964 184.677 70.2349 184.036 70.561C183.716 70.7272 183.396 70.8872 183.076 71.0534C182.762 71.2134 182.436 71.3919 182.295 71.7365C182.239 71.8719 182.024 71.8042 182.079 71.6688V71.6627Z" fill="#FBC6B0"/>
</g>
<path d="M211.432 47.1864L210.281 69.7917L213.432 76.5L213.925 77.5463C219.673 76.0569 219.347 63.8342 222.049 47.4141C222.572 44.2507 222.646 39.7518 219.494 39.1856C218.171 38.9517 216.873 39.1671 215.722 39.7641C213.402 40.9457 211.66 43.6352 211.432 47.1925V47.1864Z" fill="#7273B6"/>
<path d="M245.189 133.392C242.826 148.63 239.343 164.927 236.302 180.812L231.865 180.793V180.233L231.379 132.345L230.991 93.8308H227.212L226.812 136.1L226.375 181.778L220.325 181.975C220.295 181.753 220.27 181.538 220.239 181.323C218.128 164.398 216.356 146.987 214.226 131.318C209.69 97.9051 214.122 83.479 217.131 77.8846C218.448 75.429 218.731 72.6041 217.925 69.9638L215.402 61.6676L213.118 58.8673C211.974 57.4641 211.549 55.6732 211.955 53.9499L212.54 51.4943C212.632 51.1127 212.682 50.725 212.682 50.3311C212.682 49.8018 212.595 49.2664 212.429 48.7556C211.26 45.1737 213.051 41.321 216.694 39.6777C217.747 39.2038 218.811 38.8161 219.858 38.5022C225.36 36.8282 230.345 37.1236 230.345 37.1236C231.717 37.1913 233.016 37.3206 234.222 37.5052C235.201 37.6529 236.136 37.8437 237.004 38.0529C241.829 39.1915 244.937 41.0625 246.266 41.9795C246.716 42.2934 246.937 42.8103 246.826 43.3212C245.374 50.2265 241.872 62.8308 240.013 69.3976C239.312 71.8902 239.638 74.5427 240.992 76.7953C248.734 89.6027 248.87 109.74 245.196 133.392H245.189Z" fill="#514C9F"/>
<path d="M236.553 52.9224H227.912V55.8704H236.553V52.9224Z" fill="white"/>
<path d="M236.991 38.1268C233.68 38.5207 230.554 41.4687 228.104 44.6383C225.015 48.614 222.984 52.9222 222.984 52.9222C222.984 52.9222 220.866 49.3341 219.949 45.026C219.506 42.9458 219.346 40.6994 219.845 38.613C225.347 36.8036 230.332 37.1175 230.332 37.1175C232.825 37.2406 235.052 37.616 236.991 38.1207V38.1268Z" fill="#FBC6B0"/>
<path d="M228.098 44.6383C225.008 48.614 222.978 52.9222 222.978 52.9222C222.978 52.9222 220.86 49.3341 219.943 45.026C222.645 44.626 225.378 44.4906 228.098 44.6321V44.6383Z" fill="#7273B6"/>
<path d="M252.249 80.039L251.43 79.2266L246.193 73.983L239.602 52.3254C239.349 51.433 239.208 50.5714 239.177 49.7467C239.066 47.3711 239.811 45.2909 241.128 43.8815C241.805 43.1553 242.642 42.6014 243.596 42.2875C243.885 42.189 244.18 42.1152 244.482 42.0659C247.639 41.5243 249.098 45.7894 249.676 48.9405C252.704 65.3052 257.154 76.6971 252.255 80.039H252.249Z" fill="#7273B6"/>
<path d="M251.603 72.6597C251.412 72.4873 251.228 72.315 251.031 72.1673C249.357 70.8626 247.295 70.4871 245.295 70.9487L239.466 51.0637C239.337 50.6144 239.245 50.1713 239.171 49.7405C239.06 47.3648 239.805 45.2846 241.122 43.8753C241.799 43.149 242.636 42.5951 243.59 42.2812C245.492 43.3767 246.482 46.6694 246.95 49.2543C248.686 58.8614 250.852 66.8437 251.603 72.6535V72.6597Z" fill="#7273B6"/>
<path d="M252.211 79.4482C252.734 78.6974 252.832 77.9158 252.599 77.0357C252.119 75.2263 250.309 72.8506 248.321 73.0168C248.297 73.0168 248.272 73.0168 248.247 73.0168C242.696 74.2354 236.018 75.3801 230.116 75.1832C229.661 75.1709 229.212 75.1893 228.762 75.257C227.015 75.5155 222.319 76.2048 220.725 76.2479C220.485 76.2541 220.257 76.3279 220.054 76.451L216.25 78.7774C215.943 78.9682 215.703 79.2451 215.567 79.5836C215.149 80.6176 214.275 82.9255 214.293 84.1379C214.299 84.5318 214.749 84.7595 215.063 84.5133C215.358 84.2856 215.721 83.8056 216.109 82.8147L215.93 85.5781C215.906 85.9781 216.226 86.3412 216.626 86.3043C217.02 86.2674 217.463 85.9719 217.666 84.938L218.281 81.633L218.915 80.7283L217.752 85.3996C217.715 85.5473 217.777 85.695 217.9 85.775C218.164 85.9473 218.651 86.1196 219.081 85.4919C219.081 85.4919 219.395 84.9011 219.746 84.1564C219.721 84.7041 220.694 84.7287 222.042 83.6825L225.568 81.2084C227.673 81.5653 229.926 81.4238 231.477 79.5467C231.477 79.5467 245.127 80.5683 250.469 80.6606C251.183 80.396 251.829 79.9898 252.211 79.4482ZM220.3 83.2886C220.177 83.4055 220.085 83.5102 220.005 83.6148C220.331 82.8762 220.632 82.1008 220.669 81.6515L222.479 80.5068C222.54 80.4699 222.596 80.4391 222.663 80.4083L224.048 79.7559L220.306 83.2947L220.3 83.2886Z" fill="#FBC6B0"/>
<g style="mix-blend-mode:multiply" opacity="0.47">
<path d="M250.218 77.2757C250.815 78.2481 251.043 79.3867 250.821 80.5068C251.394 80.2483 251.898 79.8914 252.212 79.4421C252.735 78.6913 252.834 77.9097 252.6 77.0296C252.12 75.2202 250.31 72.8445 248.323 73.0107C248.298 73.0107 248.273 73.0107 248.249 73.0107C247.369 73.2015 246.476 73.3923 245.547 73.5769C246.255 73.9093 246.932 74.297 247.572 74.734C248.593 75.4356 249.566 76.1987 250.224 77.2696L250.218 77.2757Z" fill="#FBC6B0"/>
</g>
<g style="mix-blend-mode:multiply" opacity="0.53">
<path d="M215.908 82.9933C216.068 82.3102 216.253 81.6332 216.468 80.9624C216.659 80.3777 216.874 79.8176 217.367 79.4176C217.921 78.9745 218.567 78.6298 219.164 78.2482C219.829 77.8236 220.499 77.3989 221.164 76.9743C221.293 76.8943 221.441 77.0789 221.312 77.1589C220.13 77.9097 218.918 78.636 217.761 79.4237C217.195 79.8115 216.936 80.3038 216.727 80.9439C216.499 81.627 216.308 82.3225 216.142 83.0179C216.105 83.1657 215.871 83.141 215.908 82.9933Z" fill="#FBC6B0"/>
</g>
<g style="mix-blend-mode:multiply" opacity="0.53">
<path d="M218.734 80.8573C218.795 80.5373 218.974 80.285 219.214 80.0634C219.534 79.768 219.891 79.5157 220.229 79.251C220.888 78.734 221.534 78.2047 222.26 77.7801C222.389 77.7062 222.488 77.9216 222.352 77.9955C221.694 78.3771 221.103 78.8571 220.512 79.3249C220.217 79.5587 219.921 79.7926 219.626 80.0203C219.337 80.248 219.035 80.5004 218.961 80.8819C218.93 81.0296 218.697 81.005 218.727 80.8573H218.734Z" fill="#FBC6B0"/>
</g>
<path d="M224.89 37.4065C224.311 41.8069 232.183 41.2653 232.33 37.8804L232.263 29.5965L232.22 28.1255H231.937L228.853 28.0578L224.705 27.9717L224.81 33.2091L224.902 37.4065H224.89Z" fill="#FBC6B0"/>
<g style="mix-blend-mode:multiply" opacity="0.5">
<path d="M224.858 35.8559L224.846 36.4837C231.037 36.3852 231.831 29.9353 231.93 28.1136C231.942 27.812 231.942 27.6335 231.942 27.6335L228.847 28.052L225.332 28.5198L224.797 33.2095L224.852 35.8559H224.858Z" fill="#FBC6B0"/>
</g>
<path d="M234.667 24.4149C234.274 27.5968 232.52 29.7878 232.52 29.7878C232.021 30.4278 231.529 30.994 231.055 31.4925C229.965 32.6065 228.95 33.3758 228.027 33.9051C225.362 35.4129 222.1 34.8036 220.131 32.5942C218.654 30.9263 217.933 28.8831 217.755 26.7044C217.737 26.5074 217.718 26.3105 217.712 26.1074C217.7 25.7258 217.681 25.3504 217.669 24.9688C217.62 23.7379 217.57 22.507 217.435 21.2885C217.244 19.5283 217.977 17.6019 218.746 15.9648C219.238 14.9186 219.884 13.9523 220.703 13.1461C222.9 11.0105 226.507 10.075 229.461 10.7643C233.603 11.7306 234.655 15.5648 234.194 19.2513C236.465 17.6019 237.111 20.753 237.111 20.753C237.757 23.9103 234.661 24.4149 234.661 24.4149H234.667Z" fill="#FBC6B0"/>
<g opacity="0.2">
<g style="mix-blend-mode:multiply">
<path d="M231.412 25.9349C231.541 26.9012 230.87 27.7874 229.904 27.9228C228.938 28.052 228.052 27.3812 227.916 26.415C227.787 25.4487 228.458 24.5625 229.424 24.4271C230.39 24.2978 231.277 24.9687 231.412 25.9349Z" fill="#EE9BC3"/>
</g>
</g>
<g opacity="0.2">
<g style="mix-blend-mode:multiply">
<path d="M221.543 27.7508C221.672 28.7171 221.001 29.6033 220.035 29.7387C219.069 29.868 218.183 29.1971 218.047 28.2309C217.918 27.2646 218.589 26.3784 219.555 26.243C220.521 26.1137 221.408 26.7846 221.543 27.7508Z" fill="#EE9BC3"/>
</g>
</g>
<g style="mix-blend-mode:multiply" opacity="0.5">
<path d="M221.768 27.4552C221.842 27.1967 222.008 26.969 222.143 26.7351C222.291 26.4704 222.414 26.1935 222.513 25.9042C222.71 25.3257 222.796 24.7287 222.783 24.1318C222.783 23.9656 222.956 23.8363 223.103 23.8425C223.276 23.8487 223.368 23.9964 223.374 24.1564C223.393 25.1657 223.134 26.175 222.63 27.0613C222.433 27.4059 222.137 27.7814 222.506 28.0952C222.876 28.4091 223.43 28.2491 223.867 28.1445C224.242 28.0521 224.347 28.643 223.971 28.7353C223.411 28.8707 222.802 28.9876 222.285 28.6922C221.86 28.446 221.626 27.9598 221.768 27.4552Z" fill="#FBC6B0"/>
</g>
<g style="mix-blend-mode:multiply">
<g opacity="0.6">
<path d="M227.406 29.2644C227.326 29.3321 227.369 29.4675 227.363 29.5537C227.357 29.6706 227.307 29.7752 227.264 29.886C227.166 30.1076 227.024 30.3168 226.852 30.4891C226.458 30.9015 225.873 31.1908 225.295 31.2031C224.741 31.2154 223.984 30.9938 223.787 30.4153C223.879 30.3845 224.027 30.4091 224.132 30.403C224.267 30.3968 224.409 30.3784 224.544 30.3537C224.858 30.3045 225.166 30.2307 225.467 30.1445C226.052 29.9783 226.643 29.7691 227.16 29.4429C227.246 29.3875 227.326 29.3321 227.406 29.2644Z" fill="#FBC6B0"/>
</g>
<path d="M227.733 28.5508C227.702 28.8339 227.628 29.0308 227.382 29.277C227.382 29.277 227.598 29.1047 227.308 29.3386C226.681 29.8124 224.49 30.6495 223.782 30.3848C223.573 30.3048 223.228 30.194 223.037 30.034C223.092 30.0832 223.351 30.0463 223.431 30.0463C223.554 30.0463 223.671 30.034 223.794 30.0155C224.182 29.9417 224.527 29.714 224.877 29.5232C225.265 29.3139 225.677 29.2093 226.114 29.1601C226.422 29.1231 226.742 29.1785 227.025 29.0493C227.29 28.9324 227.518 28.7231 227.739 28.5508H227.733Z" fill="#FBC6B0"/>
</g>
<path d="M227.322 23.9223C227.309 24.4823 226.996 24.9501 226.614 24.9624C226.239 24.9808 225.943 24.5377 225.955 23.9777C225.968 23.4176 226.282 22.9499 226.663 22.9376C227.039 22.9191 227.334 23.3622 227.322 23.9223Z" fill="#4C313A"/>
<path d="M221.423 24.5563C221.411 25.1164 221.097 25.5841 220.716 25.5964C220.34 25.6149 220.045 25.1718 220.057 24.6117C220.069 24.0517 220.383 23.5839 220.765 23.5716C221.14 23.5531 221.436 23.9963 221.423 24.5563Z" fill="#4C313A"/>
<path d="M220.765 20.6666C220.629 20.6174 220.494 20.6359 220.371 20.6666C219.559 20.8759 219.035 21.6575 219.029 22.6053C219.066 22.4699 219.109 22.3468 219.189 22.2422C219.189 22.2422 219.202 22.236 219.208 22.2299C219.251 22.1622 219.3 22.1006 219.355 22.0514C219.559 21.8606 219.836 21.7621 220.112 21.6821C220.389 21.5959 220.673 21.5221 220.9 21.3621C221.011 21.2882 221.116 21.1651 221.079 20.999C221.048 20.8513 220.9 20.7159 220.765 20.6666Z" fill="#4C313A"/>
<path d="M225.843 19.8543C225.953 19.7497 226.083 19.7066 226.206 19.6758C227.024 19.4973 227.781 19.9835 228.12 20.8513C228.04 20.7467 227.954 20.6482 227.843 20.5928C227.837 20.5928 227.83 20.5928 227.824 20.5867C227.763 20.5436 227.695 20.5067 227.627 20.4882C227.369 20.402 227.086 20.439 226.803 20.4882C226.52 20.5374 226.236 20.5928 225.966 20.5498C225.836 20.5313 225.695 20.4636 225.67 20.2974C225.646 20.1436 225.732 19.9589 225.843 19.8543Z" fill="#4C313A"/>
<path d="M231.16 30.8154C231.129 31.037 231.105 31.2647 231.062 31.4862C230.766 31.7878 230.471 32.0709 230.194 32.3233C229.431 33.0002 228.704 33.5172 228.034 33.8988C225.369 35.4066 222.107 34.7973 220.137 32.5879C218.913 31.197 218.211 29.5599 217.903 27.7936C217.842 27.4366 217.792 27.0735 217.762 26.6981C219.294 26.3042 220.851 25.9842 222.445 25.8303C224.353 25.6334 226.316 25.6949 228.144 26.1811C228.797 26.3534 229.424 26.5811 230.058 26.8027C230.218 26.8581 230.391 26.9196 230.514 27.0366C230.625 27.135 230.686 27.2704 230.748 27.3997C230.766 27.4489 230.791 27.5043 230.809 27.5536C230.963 27.9536 231.068 28.3721 231.129 28.7968C231.234 29.4614 231.228 30.1446 231.16 30.8154Z" fill="white"/>
<path d="M227.861 28.6487C225.141 29.1595 222.378 29.338 219.614 29.2026C219.165 29.178 219.165 29.8796 219.614 29.9042C222.439 30.0458 225.27 29.8488 228.052 29.3257C228.495 29.2395 228.304 28.5687 227.867 28.6487H227.861Z" fill="#B2B2D9"/>
<path d="M228.081 30.4458C226.001 31.0366 223.847 31.289 221.687 31.2028C221.237 31.1843 221.237 31.8859 221.687 31.9044C223.908 31.9906 226.13 31.7259 228.266 31.1228C228.696 30.9997 228.518 30.3227 228.081 30.4458Z" fill="#B2B2D9"/>
<path d="M233.924 20.8881C232.97 22.5805 231.838 24.1746 230.545 25.6209C230.176 26.0332 229.801 26.4332 229.407 26.821C229.308 26.9194 229.462 27.0671 229.554 26.9687C230.939 25.5901 232.176 24.0638 233.235 22.4267C233.536 21.9589 233.826 21.4789 234.103 20.9865C234.17 20.8696 233.986 20.765 233.924 20.8819V20.8881Z" fill="white"/>
<path d="M235.937 26.6798C234.891 28.083 233.66 29.3446 232.288 30.4278C231.888 30.7417 231.482 31.0371 231.057 31.3202C230.946 31.3941 231.051 31.5787 231.162 31.5049C232.651 30.5078 234.005 29.3139 235.174 27.9599C235.5 27.5783 235.814 27.1906 236.116 26.7844C236.196 26.6736 236.017 26.569 235.937 26.6798Z" fill="white"/>
<path d="M227.019 19.2821C226.914 19.2821 226.816 19.2698 226.711 19.2698C226.809 19.2944 226.914 19.3067 227.019 19.2821Z" fill="#4C313A"/>
<path d="M240.541 17.9035C240.424 16.8388 240.171 15.7864 239.734 14.7893C238.947 12.9922 237.648 11.4167 236.029 10.3027C232.066 7.58246 226.348 7.44706 221.973 9.20108C218.871 10.4443 216.193 12.9061 215.098 16.0633C214.458 17.9096 214.415 20.0699 215.473 21.7131C215.91 22.3901 216.514 22.9563 216.827 23.6948C217.141 24.4334 217.031 25.4612 216.304 25.812C216.569 26.1566 217.16 26.052 217.437 25.7197C217.714 25.3873 217.769 24.9257 217.812 24.4888C217.978 22.8332 218.144 21.1777 218.311 19.5221C218.821 19.8975 219.332 20.273 219.843 20.6484C219.751 19.9037 219.658 19.159 219.566 18.4205C219.683 19.3559 220.988 19.6329 221.733 19.6944C222.791 19.7806 223.856 19.7806 224.908 19.6944C224.637 19.6575 224.379 19.479 224.225 19.2452C224.01 18.9251 223.942 18.5312 223.88 18.1497C224.853 19.2329 226.527 19.1467 227.979 19.2452C228.97 19.3129 229.973 19.516 230.817 20.0391C231.66 20.5622 232.33 21.4361 232.404 22.427C232.484 23.4179 231.863 24.4703 230.897 24.7165C231.278 25.135 231.875 25.3565 232.441 25.2827C231.74 25.615 231.518 26.532 231.617 27.3013C231.715 28.0707 232.047 28.803 232.103 29.5847C232.189 30.8586 231.432 32.1572 230.281 32.7111C230.872 33.2219 231.74 33.3389 232.503 33.1727C233.272 33.0065 233.961 32.5942 234.601 32.1449C236.103 31.0925 237.519 29.6647 237.777 27.8491C238.768 27.7875 240.331 27.4429 241.144 26.8705C240.799 27.1106 239.322 26.9998 239.568 25.2888C239.685 24.4641 240.221 23.2886 240.35 22.4701C240.584 20.9746 240.694 19.4236 240.528 17.9096L240.541 17.9035Z" fill="#4C313A"/>
<path d="M231.16 30.8154C231.129 31.0369 231.105 31.2646 231.062 31.4862C230.766 31.7878 230.471 32.0709 230.194 32.3232C230.711 30.5076 230.212 28.5813 228.926 27.2642C225.239 26.7657 221.479 26.7903 217.903 27.7997C217.842 27.4427 217.792 27.0796 217.762 26.7042C219.294 26.3103 220.851 25.9903 222.445 25.8364C224.353 25.6395 226.316 25.701 228.144 26.1872C228.797 26.3595 229.424 26.5873 230.058 26.8088C230.218 26.8642 230.391 26.9257 230.514 27.0427C230.625 27.1412 230.686 27.2765 230.748 27.4058C230.766 27.455 230.791 27.5104 230.809 27.5597C230.797 27.5597 230.772 27.5535 230.76 27.5535C230.92 27.9597 231.049 28.372 231.129 28.8029C231.234 29.4675 231.228 30.1507 231.16 30.8215V30.8154Z" fill="#B2B2D9"/>
</g>
<path d="M206.995 75.6815H163.194C160.892 75.6815 158.917 74.0137 158.498 71.718L152.331 39.3887C151.79 36.4161 154.498 34.4651 157.483 34.4651H201.284C203.586 34.4651 205.561 36.1329 205.98 38.4286L211.691 69.964C212.233 72.9366 209.98 75.6815 206.995 75.6815Z" fill="white"/>
<path d="M208.597 70.0808L202.768 39.1977C202.344 36.9451 200.325 35.3142 197.974 35.3142H155.89C153.717 35.3142 151.963 37.2467 152.333 39.3885C152.333 39.4069 152.333 39.4192 152.339 39.4377L158.253 71.6317C158.684 73.9765 160.727 75.6813 163.115 75.6813H203.802C206.849 75.6813 209.144 72.998 208.597 70.0869V70.0808Z" fill="#B2B2D9"/>
<g style="mix-blend-mode:multiply">
<path d="M191.314 75.1646H192.459L191.936 72.2966H190.785L191.314 75.1646Z" fill="#E1EBF2"/>
<path d="M193.34 75.1646H194.485L193.955 72.2966H192.811L193.34 75.1646Z" fill="#E1EBF2"/>
<path d="M195.758 75.1646H196.903L196.373 72.2966H195.229L195.758 75.1646Z" fill="#E1EBF2"/>
</g>
<path d="M172.992 62.3201V79.3434C172.992 82.1129 174.943 84.3839 177.418 84.5808C177.541 84.587 177.67 84.5931 177.793 84.5931L200.263 84.4393H200.491C200.491 82.2483 198.872 80.4696 196.878 80.4696H188.563C187.08 80.4696 185.874 79.1464 185.874 77.5278V62.3201C185.874 59.7291 183.96 57.6243 181.603 57.6243H177.258C174.9 57.6243 172.986 59.7291 172.986 62.3201H172.992Z" fill="white"/>
<path d="M172.992 62.3201V79.3434C172.992 82.1129 174.943 84.3839 177.418 84.5808L200.263 84.4393C200.257 84.0577 198.435 83.3684 196.189 83.3684H186.797C185.129 83.3684 183.763 82.0082 183.763 80.3342V61.6985C183.763 59.9876 182.864 58.4797 181.51 57.6243H177.258C174.9 57.6243 172.986 59.7291 172.986 62.3201H172.992Z" fill="#B2B2D9"/>
<path d="M283.881 168.687H100.404V181.335H283.881V168.687Z" fill="#AD5A43"/>
<path d="M283.881 168.687H100.404V181.335H283.881V168.687Z" fill="#CF6A37"/>
<g style="mix-blend-mode:multiply" opacity="0.77">
<path d="M283.881 168.687H100.404V177.223H283.881V168.687Z" fill="#AD5A43"/>
</g>
<path d="M283.827 88.9321H93.082V174.116H283.827V88.9321Z" fill="#514C9F"/>
<g style="mix-blend-mode:multiply" opacity="0.66">
<path d="M266.827 119.754L264.864 119.692L249.262 94.3664L101.666 94.9757L100.337 113.925L98.0781 113.845V91.2276L247.428 88.2734L266.827 119.754Z" fill="#AD5A43"/>
</g>
<path d="M283.881 126.449H125.871V131.871H283.881V126.449Z" fill="white"/>
<g style="mix-blend-mode:multiply" opacity="0.66">
<path d="M271.778 120.996H92.8066V125.286H271.778V120.996Z" fill="#AD5A43"/>
</g>
<rect x="276.164" y="86.1624" width="9.23169" height="88.6242" rx="4" fill="#B2B2D9"/>
<path d="M250.623 87.3812C249.312 85.2948 247.257 84.0701 245.072 84.0701H84.8281V91.2277H93.0813V113.845H84.8281V121.003H271.776L250.623 87.3873V87.3812ZM98.0848 113.845V91.2277H245.066L259.295 113.845H98.0848Z" fill="#B2B2D9"/>
<path d="M139.643 84.587H132.344L131.113 59.3906H138.412L139.643 84.587Z" fill="#176734"/>
<path d="M119.413 50.2202H136.165C137.925 50.2202 139.273 51.7958 139.002 53.5313L134.565 81.8418C134.344 83.2389 133.143 84.2667 131.728 84.2667H114.975C113.215 84.2667 111.867 82.6911 112.138 80.9556L116.576 52.6451C116.797 51.248 117.997 50.2202 119.413 50.2202Z" fill="white" stroke="#196735" stroke-miterlimit="10"/>
<path d="M129.926 73.804H127.544C127.378 73.804 127.224 73.9394 127.199 74.0994L126.824 76.4811C126.799 76.6473 126.91 76.7766 127.076 76.7766H129.458C129.624 76.7766 129.778 76.6412 129.802 76.4811L130.178 74.0994C130.203 73.9332 130.092 73.804 129.926 73.804Z" fill="#514C9F"/>
<path d="M127.326 71.4287H125.541C125.375 71.4287 125.221 71.5641 125.197 71.7241L124.914 73.5089C124.889 73.6751 125 73.8043 125.166 73.8043H126.951C127.117 73.8043 127.271 73.6689 127.295 73.5089L127.578 71.7241C127.603 71.558 127.492 71.4287 127.326 71.4287Z" fill="#514C9F"/>
<path d="M131.834 76.783H130.049C129.883 76.783 129.729 76.9184 129.704 77.0784L129.421 78.8632C129.397 79.0293 129.508 79.1586 129.674 79.1586H131.459C131.625 79.1586 131.779 79.0232 131.803 78.8632L132.086 77.0784C132.111 76.9122 132 76.783 131.834 76.783Z" fill="#514C9F"/>
<path d="M132.682 71.4287H131.494C131.328 71.4287 131.174 71.5641 131.149 71.7241L130.958 72.9119C130.934 73.0781 131.045 73.2073 131.211 73.2073H132.399C132.565 73.2073 132.719 73.072 132.743 72.9119L132.934 71.7241C132.959 71.558 132.848 71.4287 132.682 71.4287Z" fill="#514C9F"/>
<path d="M125.789 77.3738H124.601C124.435 77.3738 124.281 77.5092 124.257 77.6692L124.066 78.857C124.041 79.0232 124.152 79.1524 124.318 79.1524H125.506C125.672 79.1524 125.826 79.017 125.851 78.857L126.042 77.6692C126.066 77.503 125.955 77.3738 125.789 77.3738Z" fill="#514C9F"/>
<path d="M131.332 64.8862H128.95C128.784 64.8862 128.63 65.0216 128.605 65.1816L128.23 67.5634C128.205 67.7296 128.316 67.8588 128.482 67.8588H130.864C131.03 67.8588 131.184 67.7234 131.209 67.5634L131.584 65.1816C131.609 65.0155 131.498 64.8862 131.332 64.8862Z" fill="#514C9F"/>
<path d="M131.974 70.241H126.62C125.961 70.241 125.512 69.7055 125.617 69.0532L126.466 63.6988C126.571 63.0403 127.186 62.511 127.845 62.511H133.199C133.858 62.511 134.307 63.0464 134.202 63.6988L133.353 69.0532C133.248 69.7117 132.633 70.241 131.974 70.241ZM127.66 63.6988L126.811 69.0532H132.165L133.014 63.6988H127.66Z" fill="#514C9F"/>
<path d="M122.414 64.8862H120.032C119.866 64.8862 119.712 65.0216 119.687 65.1816L119.312 67.5634C119.287 67.7296 119.398 67.8588 119.564 67.8588H121.946C122.112 67.8588 122.266 67.7234 122.291 67.5634L122.666 65.1816C122.691 65.0155 122.58 64.8862 122.414 64.8862Z" fill="#514C9F"/>
<path d="M123.048 70.241H117.694C117.036 70.241 116.586 69.7055 116.691 69.0532L117.54 63.6988C117.645 63.0403 118.26 62.511 118.919 62.511H124.273C124.932 62.511 125.381 63.0464 125.276 63.6988L124.427 69.0532C124.322 69.7117 123.707 70.241 123.048 70.241ZM118.734 63.6988L117.885 69.0532H123.239L124.089 63.6988H118.734Z" fill="#514C9F"/>
<path d="M120.998 73.804H118.616C118.45 73.804 118.296 73.9394 118.271 74.0994L117.896 76.4811C117.871 76.6473 117.982 76.7766 118.148 76.7766H120.53C120.696 76.7766 120.85 76.6412 120.875 76.4811L121.25 74.0994C121.275 73.9332 121.164 73.804 120.998 73.804Z" fill="#514C9F"/>
<path d="M121.64 79.1587H116.286C115.627 79.1587 115.178 78.6233 115.283 77.9709L116.132 72.6165C116.237 71.958 116.852 71.4287 117.511 71.4287H122.865C123.524 71.4287 123.973 71.9641 123.868 72.6165L123.019 77.9709C122.914 78.6294 122.299 79.1587 121.64 79.1587ZM117.326 72.6165L116.477 77.9709H121.831L122.68 72.6165H117.326Z" fill="#514C9F"/>
<path d="M129.481 57.0825C129.555 56.6332 129.629 56.1839 129.703 55.7285C129.709 55.6854 129.721 55.6731 129.771 55.6731C130.146 55.6731 130.528 55.6731 130.903 55.6731C131.131 55.6731 131.352 55.6916 131.543 55.8023C131.728 55.9131 131.826 56.0793 131.845 56.307C131.857 56.4916 131.82 56.6701 131.728 56.8486C131.599 57.1132 131.377 57.2794 131.094 57.3656C130.958 57.4087 130.823 57.421 130.682 57.421C130.435 57.421 130.195 57.421 129.949 57.421C129.904 57.421 129.877 57.4435 129.869 57.4887C129.82 57.8087 129.764 58.1226 129.715 58.4426C129.709 58.4795 129.697 58.498 129.654 58.498C129.537 58.498 129.42 58.498 129.303 58.498C129.26 58.498 129.254 58.4857 129.26 58.4488C129.334 57.9933 129.408 57.5379 129.481 57.0886V57.0825ZM130.017 56.5593C129.992 56.7009 129.974 56.8424 129.949 56.9778C129.943 57.0209 129.949 57.0271 129.992 57.0271C130.152 57.0271 130.312 57.0271 130.472 57.0271C130.62 57.0271 130.762 57.0394 130.909 57.0086C131.075 56.9778 131.26 56.8671 131.315 56.6886C131.34 56.6147 131.359 56.5347 131.359 56.4609C131.359 56.3562 131.334 56.2639 131.248 56.2024C131.155 56.1285 131.038 56.0978 130.909 56.0978C130.651 56.0978 130.392 56.0978 130.134 56.0978C130.097 56.0978 130.085 56.1101 130.085 56.1408C130.066 56.2824 130.041 56.4239 130.017 56.5655V56.5593Z" fill="#514C9F"/>
<path d="M133.968 58.7505C134.104 58.8182 134.245 58.8613 134.393 58.8798C134.547 58.9044 134.707 58.9167 134.873 58.8675C135.021 58.8305 135.125 58.7197 135.162 58.572C135.175 58.5228 135.187 58.4736 135.193 58.4305C135.193 58.412 135.193 58.3997 135.168 58.4059C134.978 58.4366 134.787 58.4428 134.602 58.4305C134.424 58.4182 134.251 58.3874 134.116 58.2766C134.005 58.1782 133.944 58.0489 133.938 57.895C133.938 57.815 133.937 57.7412 133.956 57.6612C134.018 57.3104 134.073 56.9534 134.128 56.6026C134.137 56.5575 134.163 56.5349 134.208 56.5349C134.319 56.5349 134.436 56.5349 134.547 56.5349C134.59 56.5349 134.596 56.5472 134.59 56.5903C134.528 56.9657 134.467 57.335 134.405 57.7104C134.374 57.9135 134.461 58.0243 134.658 58.0551C134.818 58.0797 134.99 58.0735 135.156 58.0489C135.187 58.0489 135.218 58.0612 135.242 58.0366C135.267 58.012 135.261 57.9751 135.267 57.9381C135.341 57.5012 135.408 57.058 135.482 56.6211C135.488 56.578 135.501 56.5657 135.544 56.5657C135.667 56.5657 135.784 56.5657 135.907 56.5657C135.938 56.5657 135.95 56.5718 135.944 56.6088C135.833 57.2611 135.735 57.9197 135.618 58.572C135.587 58.7628 135.501 58.9475 135.322 59.0829C135.181 59.1936 135.021 59.249 134.855 59.2798C134.701 59.3044 134.553 59.2983 134.405 59.286C134.264 59.2798 134.128 59.2429 133.999 59.1936C133.968 59.1813 133.968 59.1567 133.968 59.1321C133.962 59.0152 133.956 58.8982 133.95 58.7813C133.95 58.7751 133.95 58.7628 133.956 58.7505H133.968Z" fill="#514C9F"/>
<path d="M133.665 57.7964C133.634 58.0057 133.598 58.2088 133.567 58.418C133.567 58.4488 133.554 58.4672 133.518 58.4734C133.394 58.498 133.278 58.5042 133.154 58.5226C132.921 58.5596 132.699 58.5534 132.471 58.5534C132.299 58.5534 132.139 58.5103 131.997 58.4426C131.874 58.3811 131.794 58.2765 131.764 58.1349C131.745 58.0426 131.764 57.9564 131.782 57.8641C131.807 57.7656 131.844 57.6795 131.911 57.5995C132.01 57.4764 132.145 57.4087 132.287 57.3717C132.496 57.3164 132.711 57.2979 132.914 57.3164C132.939 57.3164 132.957 57.3164 132.982 57.3164C133.007 57.3102 133.025 57.304 133.037 57.3225C133.044 57.3287 133.056 57.3348 133.068 57.3287C133.136 57.3102 133.191 57.341 133.247 57.3471C133.265 57.3471 133.278 57.3471 133.278 57.3287C133.29 57.2056 133.321 57.0763 133.228 56.984C133.167 56.9225 133.087 56.8917 132.988 56.8794C132.908 56.8732 132.834 56.8671 132.754 56.8732C132.545 56.8732 132.342 56.9286 132.139 56.9963C132.12 57.0025 132.108 57.0333 132.09 57.0209C132.071 57.0086 132.09 56.9779 132.096 56.9594C132.139 56.8548 132.182 56.744 132.225 56.6394C132.231 56.6147 132.25 56.6024 132.28 56.5901C132.41 56.547 132.545 56.5347 132.681 56.504C132.736 56.4917 132.785 56.504 132.841 56.4793C132.871 56.467 132.921 56.4793 132.957 56.4793C133.148 56.467 133.333 56.4978 133.493 56.5717C133.634 56.6394 133.727 56.7563 133.751 56.9163C133.776 57.0456 133.764 57.181 133.739 57.3102C133.714 57.4702 133.684 57.6302 133.659 57.7964H133.665ZM133.185 57.9072C133.197 57.8395 133.204 57.7779 133.216 57.7102C133.216 57.6795 133.216 57.6672 133.185 57.6672C133.105 57.6548 133.025 57.6549 132.939 57.6425C132.773 57.6302 132.601 57.6302 132.428 57.6918C132.342 57.7225 132.25 57.8026 132.237 57.9195C132.231 58.0057 132.268 58.0857 132.36 58.1226C132.434 58.1534 132.514 58.1657 132.601 58.1718C132.773 58.1841 132.939 58.1718 133.111 58.1472C133.136 58.1472 133.148 58.1349 133.148 58.1103C133.161 58.0426 133.173 57.9749 133.179 57.9072H133.185Z" fill="#514C9F"/>
<path d="M127.954 58.2333C127.954 58.2333 127.991 58.2333 128.003 58.2333C128.022 58.2333 128.04 58.2333 128.059 58.2333C128.249 58.221 128.434 58.1594 128.606 58.0548C128.649 58.0302 128.668 58.0302 128.68 58.0733C128.705 58.141 128.729 58.2025 128.754 58.2702C128.76 58.2948 128.766 58.3071 128.736 58.3256C128.563 58.4241 128.379 58.4918 128.188 58.5287C128.052 58.5533 127.923 58.5595 127.794 58.5472C127.597 58.5287 127.418 58.4733 127.271 58.3502C127.135 58.2333 127.055 58.0794 127.025 57.9071C126.994 57.7409 127.006 57.5686 127.055 57.3963C127.086 57.2916 127.123 57.187 127.185 57.0886C127.345 56.8116 127.572 56.6331 127.886 56.5531C128.022 56.5162 128.157 56.5162 128.286 56.5223C128.489 56.5346 128.668 56.5962 128.797 56.7316C128.914 56.8547 128.982 57.0085 129.006 57.187C129.025 57.3286 129.006 57.4701 128.988 57.6117C128.988 57.6486 128.963 57.6425 128.939 57.6425C128.674 57.6425 128.415 57.6425 128.151 57.6425C127.911 57.6425 127.671 57.6425 127.431 57.6425C127.388 57.6425 127.375 57.6425 127.382 57.6917C127.382 57.8332 127.431 57.9625 127.523 58.061C127.622 58.1717 127.751 58.2271 127.911 58.2333C127.923 58.2394 127.942 58.2394 127.954 58.2333ZM128.052 57.3347C128.243 57.3347 128.434 57.3347 128.625 57.3347C128.637 57.3347 128.662 57.347 128.662 57.3101C128.662 57.187 128.631 57.0762 128.557 56.9901C128.483 56.8978 128.379 56.8362 128.249 56.8239C128.077 56.8054 127.911 56.8239 127.745 56.9285C127.603 57.0209 127.523 57.1501 127.455 57.2916C127.437 57.3286 127.443 57.3347 127.486 57.3347C127.677 57.3347 127.862 57.3347 128.052 57.3347Z" fill="#292B35"/>
<path d="M124.249 58.5473C124.126 58.5473 123.997 58.535 123.88 58.4981C123.751 58.455 123.634 58.3935 123.554 58.2888C123.499 58.215 123.492 58.1288 123.486 58.0427C123.486 57.9565 123.499 57.8703 123.536 57.778C123.609 57.6057 123.745 57.4826 123.923 57.4149C124.053 57.3657 124.188 57.3411 124.323 57.3287C124.403 57.3226 124.483 57.3164 124.557 57.3226C124.643 57.3226 124.73 57.3349 124.816 57.3411C124.883 57.3411 124.945 57.3595 125.006 57.3657C125.037 57.3657 125.056 57.3657 125.062 57.3226C125.074 57.2426 125.08 57.1626 125.074 57.0887C125.056 56.9533 124.963 56.8795 124.834 56.8487C124.705 56.8179 124.57 56.8241 124.434 56.8364C124.28 56.8425 124.126 56.8979 123.979 56.9287C123.942 56.9349 123.911 56.9779 123.868 56.9718C123.843 56.9718 123.843 56.9656 123.849 56.9472C123.88 56.8549 123.917 56.7625 123.948 56.6702C123.96 56.6456 123.985 56.6333 124.016 56.6271C124.194 56.5717 124.366 56.5348 124.551 56.5225C124.742 56.504 124.92 56.5225 125.093 56.5656C125.24 56.6087 125.351 56.6887 125.407 56.8241C125.437 56.8979 125.456 56.9779 125.45 57.0641C125.419 57.5134 125.314 57.9688 125.247 58.4242C125.247 58.455 125.234 58.4735 125.197 58.4796C125.099 58.4919 125 58.4981 124.902 58.5104C124.773 58.5289 124.643 58.5412 124.52 58.5412C124.514 58.5412 124.508 58.5412 124.502 58.5412C124.422 58.5412 124.342 58.5412 124.268 58.5412L124.249 58.5473ZM124.539 58.2211C124.656 58.215 124.766 58.2088 124.883 58.1904C124.908 58.1904 124.92 58.1781 124.92 58.1534C124.945 58.0057 124.97 57.8519 124.994 57.7042C124.994 57.6796 124.994 57.6734 124.963 57.6672C124.84 57.6549 124.717 57.6426 124.594 57.6303C124.545 57.6242 124.496 57.6242 124.446 57.6303C124.317 57.6303 124.188 57.6426 124.059 57.6919C123.96 57.7288 123.899 57.7903 123.868 57.8888C123.837 57.9996 123.868 58.0857 123.954 58.1411C124.003 58.1719 124.059 58.1904 124.114 58.1965C124.188 58.2088 124.256 58.2273 124.336 58.215C124.354 58.2211 124.373 58.215 124.391 58.215C124.422 58.215 124.446 58.215 124.477 58.215C124.496 58.215 124.514 58.215 124.533 58.215L124.539 58.2211Z" fill="#292B35"/>
<path d="M121.296 57.1685C121.272 57.3408 121.29 57.5008 121.345 57.6485C121.425 57.8578 121.573 58.0178 121.782 58.1163C121.955 58.1963 122.146 58.2271 122.349 58.2209C122.509 58.2148 122.669 58.1717 122.822 58.1163C122.903 58.0855 122.983 58.0486 123.056 58.0055C123.075 57.9932 123.087 57.9932 123.099 58.0178C123.124 58.0978 123.149 58.1717 123.173 58.2517C123.179 58.2763 123.173 58.2763 123.155 58.2886C123.026 58.3625 122.89 58.424 122.755 58.4609C122.601 58.504 122.447 58.5348 122.293 58.5348C122.238 58.5348 122.176 58.5471 122.121 58.5409C121.93 58.5286 121.745 58.4917 121.579 58.4179C121.413 58.344 121.272 58.2394 121.161 58.104C121.025 57.9378 120.945 57.7347 120.921 57.507C120.896 57.3039 120.927 57.1008 120.976 56.8977C121.038 56.6392 121.173 56.4053 121.364 56.1961C121.499 56.0484 121.659 55.9315 121.838 55.8391C121.949 55.7776 122.066 55.7345 122.189 55.7037C122.293 55.6791 122.398 55.6607 122.502 55.6483C122.582 55.6422 122.656 55.636 122.73 55.6422C122.927 55.6545 123.118 55.6853 123.29 55.7653C123.376 55.8022 123.463 55.8514 123.536 55.9068C123.549 55.9191 123.555 55.9191 123.536 55.9376C123.487 56.0115 123.438 56.0915 123.389 56.1653C123.37 56.1899 123.358 56.1899 123.339 56.1776C123.223 56.0853 123.081 56.0299 122.933 55.9992C122.786 55.9622 122.626 55.9499 122.459 55.9684C122.287 55.9868 122.121 56.0422 121.961 56.1284C121.789 56.2207 121.647 56.3438 121.53 56.5038C121.456 56.6084 121.395 56.7192 121.352 56.83C121.327 56.8915 121.321 56.9531 121.302 57.0146C121.284 57.0639 121.278 57.1193 121.278 57.1685H121.296Z" fill="#292B35"/>
<path d="M118.541 57.6364C118.596 57.3102 118.652 56.984 118.701 56.6578C118.707 56.6148 118.726 56.5901 118.763 56.5594C119.089 56.2886 119.421 56.0116 119.747 55.7347C119.907 55.5993 120.067 55.4639 120.227 55.3285C120.258 55.2977 120.295 55.2731 120.326 55.2423C120.35 55.2177 120.369 55.2238 120.381 55.2423C120.43 55.3162 120.467 55.39 120.486 55.4823C120.504 55.5685 120.51 55.6547 120.486 55.747C120.449 55.9439 120.344 56.1162 120.178 56.2578C119.852 56.5286 119.532 56.7994 119.206 57.0763C119.187 57.0886 119.169 57.101 119.163 57.1256C119.138 57.1256 119.126 57.144 119.107 57.1625C118.935 57.3102 118.763 57.4518 118.584 57.5995C118.572 57.6118 118.559 57.6302 118.541 57.6302V57.6364Z" fill="#514C9F"/>
<path d="M118.54 57.6365C118.54 57.6365 118.571 57.618 118.583 57.6057C118.755 57.458 118.928 57.3165 119.106 57.1688C119.125 57.1565 119.137 57.138 119.162 57.1318C119.315 57.3103 119.476 57.4888 119.629 57.6611C119.728 57.7719 119.826 57.8888 119.925 57.9996C120.017 58.1104 120.048 58.2458 120.054 58.3935C120.054 58.5474 119.992 58.6951 119.912 58.8366C119.894 58.8674 119.863 58.892 119.839 58.9228C119.826 58.9351 119.808 58.9474 119.796 58.9659C119.759 59.0213 119.734 59.0213 119.691 58.9782C119.568 58.8305 119.445 58.6828 119.315 58.5351C119.069 58.2519 118.823 57.9627 118.571 57.6796C118.558 57.6673 118.534 57.6611 118.54 57.6365Z" fill="#292B35"/>
<path d="M125.868 56.6578C125.96 56.6209 126.059 56.6148 126.157 56.6024C126.416 56.5655 126.668 56.5717 126.92 56.5717C126.957 56.5717 126.976 56.5717 126.963 56.6209C126.945 56.7009 126.933 56.7748 126.927 56.8548C126.927 56.8856 126.914 56.8979 126.877 56.8979C126.797 56.8979 126.717 56.8979 126.637 56.8979C126.502 56.8979 126.373 56.9163 126.237 56.9286C126.194 56.9286 126.176 56.9533 126.163 56.9963C126.083 57.4825 126.003 57.9687 125.93 58.4549C125.923 58.498 125.911 58.5165 125.862 58.5103C125.782 58.5103 125.696 58.5103 125.616 58.5103C125.597 58.5103 125.579 58.5103 125.566 58.5042C125.566 58.4919 125.573 58.4796 125.579 58.4611C125.677 57.8764 125.77 57.2917 125.862 56.7071C125.862 56.6948 125.862 56.6825 125.862 56.664L125.868 56.6578Z" fill="#292B35"/>
<path d="M125.868 56.6577C125.868 56.6577 125.868 56.6823 125.868 56.7008C125.775 57.2855 125.677 57.8701 125.585 58.4548C125.585 58.4671 125.578 58.4794 125.572 58.4979C125.591 58.3687 125.609 58.2456 125.634 58.1163C125.708 57.6486 125.788 57.1808 125.862 56.707C125.862 56.6885 125.868 56.67 125.874 56.6577H125.868Z" fill="#514C9F"/>
<path d="M124.25 58.5471C124.33 58.5471 124.41 58.5471 124.484 58.5471C124.404 58.5594 124.324 58.5533 124.25 58.5471Z" fill="#514C9F"/>
<path d="M121.297 57.1685C121.297 57.1193 121.309 57.0639 121.321 57.0146C121.315 57.0639 121.303 57.1193 121.297 57.1685Z" fill="#514C9F"/>
<path d="M128.057 58.2334C128.057 58.2334 128.02 58.2395 128.002 58.2334C128.02 58.2272 128.039 58.2272 128.057 58.2334Z" fill="#514C9F"/>
<path d="M124.601 57.6365C124.552 57.6365 124.502 57.6365 124.453 57.6365C124.502 57.6303 124.558 57.6242 124.601 57.6365Z" fill="#514C9F"/>
<path d="M124.484 58.2273C124.484 58.2273 124.521 58.2273 124.54 58.2273C124.521 58.2334 124.503 58.2334 124.484 58.2273Z" fill="#514C9F"/>
<path d="M69.2225 28.1689L68.5886 28.6859L67.7885 31.3631C67.7701 31.5354 67.7578 31.7077 67.7516 31.88C67.727 32.5016 67.4747 34.6249 65.3267 34.6618L62.508 34.2926H62.4772L61.7879 34.2003C61.7879 34.2003 60.7109 37.4929 59.9478 41.0563C59.9108 41.2287 59.8739 41.401 59.837 41.5733C59.837 41.5733 59.7077 41.5918 59.4739 41.6102C58.1937 41.7026 53.861 41.7826 51.7192 38.5145L53.0363 32.2616C53.0363 32.2616 45.7371 29.5967 47.9158 20.5374C47.9158 20.5374 51.1038 8.72079 64.299 15.3061C64.299 15.3061 68.0901 17.1093 67.45 23.7008L68.6132 25.1101L69.8564 26.6241C69.8564 26.6241 70.2195 27.1411 69.2225 28.1689Z" fill="#FBC6B0"/>
<path d="M60.0389 40.6687L59.5219 44.6322C57.2448 42.6197 55.6446 40.8103 54.0137 37.9546C56.1308 38.7116 58.2295 39.5486 60.0389 40.6749V40.6687Z" fill="#FBC6B0"/>
<g style="mix-blend-mode:multiply" opacity="0.29">
<path d="M61.6467 41.0566C61.8129 40.2812 60.3051 39.518 60.4835 38.8041C61.1359 36.2192 61.7944 34.2005 61.7944 34.2005L62.5145 34.299L61.6344 34.1452C59.7881 33.8251 58.1325 35.3207 58.2741 37.1916C58.3849 38.5456 60.4958 40.0165 61.6467 41.0628V41.0566Z" fill="#FBC6B0"/>
</g>
<path d="M67.5605 30.243C66.6374 30.3414 65.6834 29.966 65.0864 29.246C65.0126 29.1536 64.8833 29.1167 64.7787 29.1844C64.6864 29.2459 64.6433 29.3998 64.7172 29.4921C65.4065 30.3353 66.4958 30.803 67.5851 30.6861C67.8682 30.6553 67.8436 30.2184 67.5605 30.243Z" fill="#4C313A"/>
<g style="mix-blend-mode:multiply" opacity="0.45">
<path d="M59.3491 30.1383C59.3491 30.1383 59.3183 30.1383 59.2999 30.1383C57.792 29.8798 56.7273 29.3197 56.1303 28.4643C55.478 27.5288 55.6441 26.5995 55.6503 26.5564C55.6749 26.4394 55.7857 26.3594 55.9088 26.3779C56.0257 26.4025 56.1057 26.5133 56.0872 26.6364C56.0872 26.6364 55.9518 27.4365 56.4996 28.2181C57.0289 28.9689 57.9951 29.4674 59.3737 29.7013C59.4968 29.7198 59.5768 29.8367 59.5522 29.9536C59.5337 30.0583 59.4476 30.1321 59.3491 30.1383Z" fill="#FBC6B0"/>
<path d="M59.9294 29.2215C59.9294 29.2215 59.9171 29.2215 59.911 29.2215C59.7879 29.2215 59.6894 29.1168 59.6956 28.9999C59.714 27.8921 58.3785 27.7382 58.3231 27.7321C58.2 27.7198 58.1139 27.609 58.1262 27.4921C58.1385 27.369 58.2493 27.2828 58.3662 27.2951C58.9878 27.3567 60.151 27.7998 60.1325 29.0061C60.1325 29.123 60.0402 29.2153 59.9233 29.2215H59.9294Z" fill="#FBC6B0"/>
</g>
<path d="M67.0145 22.4144C67.033 22.396 67.0576 22.3898 67.0822 22.3775C66.5529 21.639 65.6297 21.2143 64.7312 21.3312C64.5896 21.3497 64.4419 21.3805 64.325 21.4728C64.2081 21.5651 64.1342 21.7313 64.1835 21.8667C64.2388 22.0205 64.4112 22.0821 64.565 22.1067C64.8851 22.1559 65.2174 22.119 65.5436 22.0882C65.8698 22.0575 66.2021 22.039 66.516 22.1252C66.7006 22.1744 66.873 22.279 67.0083 22.4083L67.0145 22.4144Z" fill="#4C313A"/>
<path d="M65.5858 24.1747C65.5489 24.667 65.7889 25.0978 66.1151 25.1471C66.4413 25.1963 66.7367 24.8332 66.7674 24.347C66.7982 23.8608 66.5643 23.4238 66.2382 23.3746C65.912 23.3254 65.6166 23.6885 65.5858 24.1747Z" fill="#4C313A"/>
<path d="M51.7139 35.5234C51.6524 35.5357 51.5847 35.5357 51.5293 35.5357L51.7139 35.5234Z" fill="#4C313A"/>
<path d="M53.3361 11.9152C53.2869 11.8659 53.2253 11.8229 53.1699 11.7798L53.3361 11.9152Z" fill="#4C313A"/>
<path d="M70.2258 14.654C69.5857 15.1894 68.601 15.0725 67.8871 14.654C67.8625 14.6416 67.844 14.6232 67.8255 14.6109C68.1887 14.4509 68.5333 14.2539 68.8472 14.02C67.7086 12.9553 66.2685 12.2106 64.736 11.9091C65.136 11.9091 65.5361 11.8352 65.9177 11.6998C65.2222 11.8537 64.5144 11.5336 63.9298 11.1274C63.3513 10.7213 62.8343 10.2104 62.2004 9.8904C60.9572 9.2688 59.4801 9.4719 58.1015 9.69346C58.7169 9.42881 59.277 9.04108 59.7447 8.56104C59.0185 9.07801 58.0953 9.21956 57.2091 9.29957C56.3229 9.37958 55.4058 9.42881 54.5935 9.79193C53.8057 10.1489 53.1287 10.9059 53.1287 11.7675C53.1287 11.3121 51.6147 11.3182 51.3008 11.3613C49.5406 11.5952 48.6113 13.2692 47.8851 14.734C47.0973 16.3218 46.6357 18.0635 46.4757 19.8299C46.2665 22.0701 46.5311 24.3288 47.085 26.5013C47.3312 27.4737 47.5589 28.3292 48.1744 29.1169C48.7467 29.8493 49.4668 30.4586 50.3469 30.7909C51.147 31.0925 51.8609 31.4249 52.4148 32.1018C52.6917 32.4403 52.9133 32.8281 53.0795 33.2343C53.0795 33.0804 53.0733 32.9265 53.061 32.7727C53.0733 32.2988 53.0302 31.8249 52.9318 31.3572C53.5103 31.9603 53.898 32.7358 54.0519 33.5543C54.735 32.0588 54.895 30.3232 54.4888 28.7292C55.0673 29.7139 56.3782 30.1878 57.4491 29.8001C56.7844 29.4185 56.1444 28.9385 55.7505 28.2738C55.3628 27.6091 55.2704 26.7352 55.6766 26.0766C56.2736 25.1227 57.7261 25.0304 58.6985 25.5966C59.6709 26.1689 60.274 27.1967 60.791 28.2061C61.6095 27.166 60.6679 24.458 60.6679 24.458C60.6679 24.458 61.2895 25.5043 61.868 25.5781C61.2526 24.9011 61.2649 23.8303 61.6218 22.9871C61.985 22.1439 61.4064 21.1838 60.3848 20.1622C59.3632 19.1406 59.5109 19.8299 59.5539 18.9128C59.9909 19.4483 66.3608 19.1159 65.8869 20.236C65.413 21.3562 66.9516 19.7375 67.1116 19.1898C67.7517 20.6361 67.924 22.2855 67.604 23.8364C69.0995 21.7316 69.278 18.7713 68.0348 16.5064C69.001 16.3033 69.8504 15.5894 70.2258 14.6724V14.654Z" fill="#4C313A"/>
<path d="M76.0807 187.41C73.6312 186.991 70.7447 186.173 69.2246 184.591L60.6083 183.803C60.6083 183.803 59.3221 185.459 58.5158 187.391C57.5557 189.705 59.6729 192.112 62.0854 191.435L62.4116 191.342C62.8424 191.219 63.2855 191.176 63.7287 191.195C64.5349 191.238 65.335 191.386 66.1043 191.632C67.0828 191.946 68.1106 192.075 69.1384 192.044L75.9022 191.853C78.1609 191.792 78.9486 188.702 76.93 187.687C76.6715 187.557 76.3884 187.465 76.0868 187.41H76.0807Z" fill="#4C313A"/>
<path d="M74.566 146.002L70.3502 185.575H59.1798L61.2477 143.651L44.5753 108.017C43.2336 105.155 42.7782 101.955 43.2767 98.8283L43.9844 94.3233L44.1014 93.554L65.8882 96.4035L74.1905 137.928C74.7198 140.58 74.8429 143.3 74.5598 145.99L74.566 146.002Z" fill="#CF6A37"/>
<path d="M68.59 146.002L64.3742 185.576H59.1798L61.2477 143.651L44.5753 108.017C43.2336 105.155 42.7782 101.955 43.2767 98.8286L43.9844 94.3235L59.9122 96.4037L68.2146 137.928C68.7438 140.58 68.8669 143.301 68.5838 145.99L68.59 146.002Z" fill="#A04923"/>
<path d="M59.2341 187.071C56.4954 186.523 53.2827 185.514 51.6272 183.686L41.9832 182.529C41.9832 182.529 40.4938 184.345 39.5275 186.48C38.3705 189.047 40.6661 191.822 43.3987 191.139L43.768 191.047C44.2418 190.93 44.7404 190.887 45.2266 190.924C46.1128 190.991 46.9929 191.176 47.8361 191.471C48.9439 191.853 50.1132 192.05 51.2887 192.05H61.4743C62.6314 190.062 61.4866 187.526 59.228 187.077L59.2341 187.071Z" fill="white"/>
<path d="M59.2341 187.071C56.4954 186.523 53.2827 185.514 51.6272 183.686L41.9832 182.529C41.9832 182.529 40.4938 184.345 39.5275 186.48C38.3705 189.047 40.6661 191.822 43.3987 191.139L43.768 191.047C44.2418 190.93 44.7404 190.887 45.2266 190.924C46.1128 190.991 46.9929 191.176 47.8361 191.471C48.9439 191.853 50.1132 192.05 51.2887 192.05H61.4743C62.6314 190.062 61.4866 187.526 59.228 187.077L59.2341 187.071Z" fill="#4C313A"/>
<path d="M41.43 93.1169L40.7714 96.3911C40.0083 100.97 41.3253 105.66 44.3595 109.168L45.8304 110.866C47.2029 112.454 47.8491 114.547 47.609 116.627L49.3138 139.497L40.0391 182.24C40.0391 182.24 44.7657 185.932 52.2187 184.769L64.0476 143.664C64.0476 143.664 71.5007 111.71 65.7032 96.3173L41.4361 93.1231L41.43 93.1169Z" fill="#CF6A37"/>
<path d="M93.0659 48.6819C92.8074 49.445 92.2597 50.6636 91.1703 51.9007C90.4687 52.6884 89.9948 53.6547 89.8656 54.7009L89.5886 56.9596C89.5886 56.9596 76.4735 65.1574 73.0085 67.0776L65.734 50.8544C60.5088 50.202 55.3822 53.427 51.8926 57.8705L64.8354 74.3214C66.1155 75.9461 67.9803 77.0416 70.0359 77.2509C71.6115 77.4109 73.4763 77.097 75.3657 75.6323L91.2196 60.4061C91.2196 60.4061 93.9399 61.4339 97.9464 59.1445L103.079 58.9598C103.227 58.9598 103.362 58.8921 103.467 58.7875C103.793 58.449 104.101 57.7351 100.488 57.969L100.254 57.132L105.104 56.2703C105.104 56.2703 106.729 54.2701 99.8358 56.2026L99.4973 55.2118L104.101 52.5715C104.599 52.2822 104.335 51.5191 103.762 51.6053C103.005 51.716 101.59 52.3376 98.9742 54.1163L98.4818 53.23L102.716 50.1405C103.208 49.7835 102.882 49.0081 102.279 49.1127C101.454 49.2543 99.8851 50.0482 96.9186 52.4115L93.8229 53.4085L92.9674 51.9991C92.9674 51.9991 94.2907 49.9928 93.9645 48.7188" fill="#FBC6B0"/>
<path d="M51.8848 57.8644L64.8276 74.3152C66.1077 75.94 67.9725 77.0355 70.0281 77.2448C71.6037 77.4048 73.4685 77.0909 75.3579 75.6261L91.2118 60.4C91.2118 60.4 93.932 61.4278 97.9386 59.1383L103.071 58.9537C103.219 58.9537 103.355 58.886 103.459 58.7814C103.785 58.4429 104.093 57.729 100.48 57.9628L100.247 57.1258L105.096 56.2642C105.096 56.2642 106.721 54.264 99.828 56.1965L99.4895 55.2056L104.093 52.5654C104.592 52.2761 104.327 51.513 103.755 51.5991C102.998 51.7099 101.582 52.3315 98.9664 54.1101L98.474 53.2239L102.708 50.1344C103.201 49.7774 102.874 49.0019 102.271 49.1066C101.447 49.2481 99.8772 50.0421 96.9108 52.4054L95.3906 52.8977C94.4675 53.1931 93.4643 52.8239 92.9596 51.993C92.9596 51.993 95.0522 49.5128 93.9567 48.7127C93.5812 48.4419 93.212 48.2449 93.0581 48.6881C92.7996 49.4512 92.2519 50.676 91.1625 51.9068C90.4609 52.6946 89.987 53.6609 89.8578 54.7071L89.5808 56.9658C89.5808 56.9658 76.4657 65.1636 73.0007 67.0837L62.6858 43.9245C57.4607 43.2721 55.3743 53.4332 51.8848 57.8767V57.8644Z" fill="#FBC6B0"/>
<path d="M55.0666 52.147C54.0511 54.2764 53.048 56.3874 51.8848 57.8645L55.9159 62.9911L57.2638 64.7021L57.8977 65.5021L61.338 69.878L62.0519 70.7827L63.3998 72.4936L64.8276 74.3092C65.2092 74.7954 65.6461 75.2385 66.1323 75.6201C67.2525 76.5125 68.5941 77.091 70.0343 77.2387C71.6037 77.3987 73.4685 77.0787 75.3579 75.6139L89.9932 61.5571C89.8886 61.4279 89.7901 61.2925 89.6916 61.1694C88.9531 60.197 88.3499 59.1446 87.8268 58.0368C84.128 60.3386 75.6841 65.576 73.0007 67.0592L72.3545 65.6068L71.4252 63.5266L70.9697 62.5111L68.6372 57.2736L68.2125 56.332L67.3017 54.2764L62.6797 43.9C59.1963 43.4692 57.0976 47.8511 55.0605 52.1347L55.0666 52.147Z" fill="#176734"/>
<path d="M55.0666 52.147C54.0511 54.2764 53.048 56.3874 51.8848 57.8645L55.9159 62.9911L57.2638 64.7021L57.8977 65.5021L61.338 69.878L62.0519 70.7827L63.3998 72.4936L64.8276 74.3092C65.2092 74.7954 65.6461 75.2385 66.1323 75.6201C67.2525 76.5125 68.5941 77.091 70.0343 77.2387C71.6037 77.3987 73.4685 77.0787 75.3579 75.6139L89.9932 61.5571C89.8886 61.4279 89.7901 61.2925 89.6916 61.1694C88.9531 60.197 88.3499 59.1446 87.8268 58.0368C84.128 60.3386 75.6841 65.576 73.0007 67.0592L72.3545 65.6068L71.4252 63.5266L70.9697 62.5111L68.6372 57.2736L68.2125 56.332L67.3017 54.2764L62.6797 43.9C59.1963 43.4692 57.0976 47.8511 55.0605 52.1347L55.0666 52.147Z" fill="#176734"/>
<path d="M55.0666 52.1468C54.0511 54.2762 53.048 56.3872 51.8848 57.8643L55.9159 62.9909L57.2638 64.7019L57.8977 65.502L61.338 69.8778L62.0519 70.7825L63.3998 72.4934L64.8276 74.309C65.2092 74.7952 65.6461 75.2383 66.1323 75.6199C66.4278 75.5399 66.7047 75.3799 66.9078 75.146C67.5602 74.3952 67.4309 73.2566 67.2032 72.2842C66.1262 67.7483 63.6767 63.6679 61.1103 59.7783C60.0271 58.1412 58.9193 56.5164 57.7807 54.9163C57.1284 53.9931 56.4452 53.0638 55.5159 52.4176C55.3743 52.3191 55.2266 52.2206 55.0666 52.1406V52.1468Z" fill="#176734"/>
<path d="M40.7734 96.3973C42.7736 97.3266 44.6815 98.0528 46.5032 98.5944C53.4024 100.656 59.046 100.047 63.7665 97.4989C64.4312 97.142 65.0774 96.7419 65.7052 96.3111V79.4479C65.7052 76.1553 66.3452 72.8872 67.5946 69.8469C68.5916 67.4036 69.0963 64.8064 69.0963 62.2093C69.0963 60.1906 68.7947 58.1781 68.1916 56.2271C68.1916 56.2271 62.7387 41.5487 61.5878 40.3856C60.4369 39.2224 52.2146 34.9819 52.2146 34.9819L45.4262 44.7244C41.8505 49.925 40.3119 56.2579 41.0996 62.5108C41.0996 62.5108 41.6535 65.7912 42.6629 74.9675C43.6722 84.1499 40.7796 96.3973 40.7796 96.3973H40.7734Z" fill="#176734"/>
<g style="mix-blend-mode:multiply">
<path d="M46.5501 79.8788C46.587 86.1071 46.4024 92.3601 46.4947 98.5884C53.3939 100.65 59.0375 100.041 63.758 97.4929C63.4749 94.6187 63.2041 91.7446 62.9825 88.8705C62.6194 84.1685 62.5209 79.4911 62.4655 74.7829C62.3671 66.5421 61.05 57.932 56.0526 51.1129C54.9694 49.642 53.6893 48.0356 52.1937 46.9648C51.406 46.4047 50.5382 46.017 49.7997 46.6016C49.0734 47.1802 48.6672 48.288 48.378 49.1681C47.9472 50.479 47.6764 51.8329 47.4363 53.1931C45.8977 61.9878 46.4886 70.9979 46.5439 79.8727L46.5501 79.8788Z" fill="#176734"/>
</g>
<path d="M70.4413 116.418L68.1026 109.783L67.6903 107.125C67.6349 106.774 67.9549 106.478 68.3057 106.558C69.0012 106.725 69.3212 107.586 69.3212 107.586C69.3827 108.682 69.9797 109.402 70.5029 109.636C71.026 109.869 72.0292 109.814 71.4937 108.712C70.7798 107.254 71.026 106.663 70.1644 105.844C70.1644 105.844 69.3581 105.217 68.5827 104.232C67.8749 103.333 65.487 100.096 65.487 100.096L63.5114 97.4436C62.1697 98.416 60.785 99.3269 59.3633 100.182L60.9696 101.85C60.8342 102.139 60.6988 102.515 60.5819 102.903C60.071 104.577 59.948 106.343 60.2434 108.066C60.4403 109.199 60.6988 110.017 60.6988 110.017C60.1264 112.744 59.4679 115.618 60.5019 115.655C60.9758 115.624 61.0188 114.768 61.0188 114.768L61.8004 110.663L62.5821 111.057C62.6005 116.018 63.936 118.381 63.936 118.381C64.6992 119.2 64.9454 118.11 64.9454 118.11L63.8437 111.39H64.4222L66.3978 118.572C66.8533 119.6 67.4441 119.39 67.6349 118.953C67.7457 118.695 67.561 118.227 67.561 118.227L65.8255 110.983L66.3486 110.866L69.3274 116.947C69.7705 117.723 70.1028 117.587 70.3121 117.31C70.509 117.052 70.5398 116.701 70.429 116.393L70.4413 116.418Z" fill="#FBC6B0"/>
<path d="M56.761 39.3763C62.5154 44.4537 61.4137 58.3935 58.6319 74.4998C58.6319 74.4998 63.6232 94.5387 66.6697 100.465L60.2567 102.675C55.1054 95.3388 51.0619 87.3626 48.6248 78.4448C48.3478 77.4293 48.1694 76.3892 48.0586 75.3429C46.3599 59.1198 45.7199 44.8783 50.2742 39.6655C51.9359 37.7638 54.8654 37.7022 56.761 39.3763Z" fill="#176734"/>
<path d="M101.125 44.2284L106.557 47.4125C106.982 47.6615 107.124 48.2089 106.875 48.6337L99.2622 61.6205C99.0132 62.0452 98.4658 62.188 98.041 61.939L92.6095 58.7549C92.1847 58.5059 92.0419 57.9585 92.291 57.5337L99.9042 44.547C100.153 44.1222 100.701 43.9794 101.125 44.2284Z" fill="#010101"/>
<path d="M105.352 46.7119L99.2836 43.1543C98.8379 42.893 98.2647 43.0425 98.0035 43.4882L90.4338 56.4006C90.1725 56.8463 90.3221 57.4195 90.7678 57.6808L96.8364 61.2384C97.2821 61.4996 97.8552 61.3501 98.1165 60.9044L105.686 47.992C105.947 47.5463 105.798 46.9731 105.352 46.7119Z" fill="#6474AE"/>
<path d="M103.93 47.4561L99.3374 44.7638C98.9914 44.5609 98.5465 44.677 98.3437 45.023L92.3085 55.3179C92.1057 55.6639 92.2217 56.1088 92.5677 56.3117L97.1604 59.004C97.5064 59.2069 97.9513 59.0908 98.1541 58.7448L104.189 48.4499C104.392 48.1039 104.276 47.6589 103.93 47.4561Z" fill="white"/>
</svg>
