<svg width="206" height="193" viewBox="0 0 206 193" fill="none" xmlns="http://www.w3.org/2000/svg">
<ellipse cx="161.5" cy="123.5" rx="35.5" ry="33.5" fill="#E6EFFF"/>
<path d="M202.893 171.762L189.939 152.093C197.273 144.648 201.434 134.614 201.434 124.069C201.434 101.92 183.444 83.9302 161.294 83.9302C139.145 83.9302 121.155 101.92 121.155 124.069C121.155 146.219 139.145 164.208 161.294 164.208C164.031 164.208 166.695 163.844 169.322 163.296L178.846 184.825C180.378 188.328 183.334 191.029 186.947 192.27C188.406 192.782 189.902 193 191.399 193C193.662 193 195.925 192.453 197.967 191.322C201.325 189.462 203.77 186.287 204.682 182.564C205.594 178.88 204.9 174.937 202.822 171.764L202.893 171.762ZM128.453 124.071C128.453 105.972 143.196 91.2294 161.294 91.2294C179.393 91.2294 194.136 105.972 194.136 124.071C194.136 133.594 190.012 142.607 182.824 148.848C179.21 151.985 175.014 154.286 170.417 155.634C167.462 156.511 164.396 156.947 161.259 156.947C143.16 156.947 128.417 142.204 128.417 124.106L128.453 124.071ZM197.639 180.812C197.2 182.563 196.07 184.06 194.501 184.935C192.895 185.811 191.07 185.956 189.319 185.373C187.604 184.79 186.253 183.548 185.523 181.906L176.401 161.254C179.173 160.123 181.839 158.664 184.282 156.948H184.318L196.724 175.814C197.71 177.309 198.037 179.098 197.601 180.849L197.639 180.812Z" fill="black"/>
<path d="M183.005 120.968C183.152 121.989 183.223 123.048 183.223 124.105C183.223 128.631 181.873 132.936 179.283 136.621C178.115 138.263 178.517 140.562 180.195 141.694C180.816 142.132 181.546 142.35 182.275 142.35C183.443 142.35 184.574 141.803 185.268 140.782C188.699 135.891 190.523 130.09 190.523 124.105C190.523 122.719 190.414 121.295 190.232 119.945C189.94 117.938 188.116 116.588 186.109 116.843C184.102 117.135 182.715 118.959 183.007 120.966L183.005 120.968Z" fill="black"/>
<path d="M179.285 111.589C179.979 112.61 181.145 113.158 182.277 113.158C183.007 113.158 183.737 112.939 184.357 112.501C185.999 111.333 186.4 109.07 185.27 107.428C184.357 106.115 183.298 104.838 182.168 103.67C180.744 102.246 178.446 102.211 177.023 103.634C175.6 105.058 175.564 107.357 176.988 108.779C177.827 109.655 178.63 110.603 179.324 111.589L179.285 111.589Z" fill="black"/>
<path d="M48.2506 153.258H121.231C123.238 153.258 124.88 151.616 124.88 149.609C124.88 147.603 123.238 145.96 121.231 145.96H51.8996V7.29803H154.072V76.6292C154.072 78.6362 155.714 80.2783 157.721 80.2783C159.728 80.2783 161.37 78.6362 161.37 76.6292V3.64901C161.37 1.64206 159.728 0 157.721 0H48.2506C46.2436 0 44.6016 1.64206 44.6016 3.64901V149.609C44.6016 151.616 46.2436 153.258 48.2506 153.258Z" fill="black"/>
<path d="M135.205 161.178L31.7896 179.276L7.88879 42.6946L34.3085 38.0602C36.2796 37.6953 37.6284 35.835 37.2635 33.8282C36.8986 31.857 35.0383 30.5082 33.0315 30.8731L3.03619 36.1286C2.08811 36.311 1.24751 36.8225 0.664331 37.624C0.116979 38.4271 -0.101297 39.4127 0.0436631 40.3607L25.186 184.132C25.3684 185.08 25.88 185.921 26.6814 186.504C27.3021 186.942 28.0319 187.16 28.7617 187.16C28.98 187.16 29.1999 187.16 29.3824 187.087L136.409 168.368C138.38 168.003 139.729 166.142 139.364 164.136C138.999 162.129 137.139 160.816 135.132 161.181L135.205 161.178Z" fill="black"/>
</svg>
